<svg width="400" height="400" viewBox="0 0 400 400" fill="none" xmlns="http://www.w3.org/2000/svg">
<g clip-path="url(#clip0_1009_174)">
<path d="M200 400C310.457 400 400 310.457 400 200C400 89.5431 310.457 0 200 0C89.5431 0 0 89.5431 0 200C0 310.457 89.5431 400 200 400Z" fill="#8ABC3F"/>
<path d="M207.5 127.5L267.5 67.5L332.5 132.5L272.5 192.5" stroke="white" stroke-width="20" stroke-linejoin="round"/>
<path d="M175 325C230.228 325 275 280.228 275 225C275 169.772 230.228 125 175 125C119.772 125 75 169.772 75 225C75 280.228 119.772 325 175 325Z" stroke="white" stroke-width="20"/>
<path d="M207.384 199.744C207.384 203.499 206.68 207.136 205.272 210.656C203.864 214.059 201.987 217.403 199.64 220.688C197.293 223.973 194.653 227.141 191.72 230.192C188.787 233.243 185.795 236.176 182.744 238.992C181.219 240.4 179.459 242.101 177.464 244.096C175.469 245.973 173.592 247.968 171.832 250.08C170.072 252.075 168.547 254.128 167.256 256.24C166.083 258.352 165.496 260.288 165.496 262.048H212.312V280H141.208C140.856 278.827 140.68 277.36 140.68 275.6C140.797 273.84 140.856 272.608 140.856 271.904C140.856 266.037 141.912 260.64 144.024 255.712C146.253 250.784 149.011 246.267 152.296 242.16C155.699 237.936 159.277 234.064 163.032 230.544C166.904 226.907 170.483 223.445 173.768 220.16C177.171 216.875 179.928 213.707 182.04 210.656C184.269 207.605 185.384 204.496 185.384 201.328C185.384 196.869 184.035 193.467 181.336 191.12C178.637 188.656 175.235 187.424 171.128 187.424C167.725 187.424 164.147 188.245 160.392 189.888C156.637 191.531 152.941 194.288 149.304 198.16L138.568 183.024C143.261 178.096 148.659 174.459 154.76 172.112C160.979 169.765 167.139 168.592 173.24 168.592C177.699 168.592 181.981 169.237 186.088 170.528C190.195 171.819 193.832 173.755 197 176.336C200.168 178.917 202.691 182.203 204.568 186.192C206.445 190.064 207.384 194.581 207.384 199.744Z" fill="white"/>
</g>
<defs>
<clipPath id="clip0_1009_174">
<rect width="400" height="400" fill="white"/>
</clipPath>
</defs>
</svg>
